<?xml version="1.0" ?><svg viewBox="0 0 32 32" xmlns="http://www.w3.org/2000/svg"><title/><g data-name="Layer 20" id="Layer_20"><path d="M16,2A14,14,0,1,0,30,16,14.015,14.015,0,0,0,16,2Zm0,26A12,12,0,1,1,28,16,12.013,12.013,0,0,1,16,28Z" fill="rgba(0, 0, 0, 0.1)" /><path d="M19,22H13a1,1,0,0,0,0,2h6a1,1,0,0,0,0-2Z" fill="rgba(0, 0, 0, 0.1)"/><path d="M12.293,13.707a1,1,0,0,0,1.414-1.414L12.414,11l1.293-1.293a1,1,0,0,0-1.414-1.414L11,9.586,9.707,8.293A1,1,0,0,0,8.293,9.707L9.586,11,8.293,12.293a1,1,0,1,0,1.414,1.414L11,12.414Z" fill="rgba(0, 0, 0, 0.1)"/><path d="M23.707,8.293a1,1,0,0,0-1.414,0L21,9.586,19.707,8.293a1,1,0,0,0-1.414,1.414L19.586,11l-1.293,1.293a1,1,0,1,0,1.414,1.414L21,12.414l1.293,1.293a1,1,0,0,0,1.414-1.414L22.414,11l1.293-1.293A1,1,0,0,0,23.707,8.293Z" fill="rgba(0, 0, 0, 0.1)"/></g></svg>